<svg width="9" height="9" viewBox="0 0 9 9" fill="none" xmlns="http://www.w3.org/2000/svg">
<path d="M8.33333 5.99992C11.2789 5.99992 13.6667 3.6121 13.6667 0.666585C13.6667 -2.27893 11.2789 -4.66675 8.33333 -4.66675C5.38781 -4.66675 3 -2.27893 3 0.666585C3 3.6121 5.38781 5.99992 8.33333 5.99992Z" fill="#9013FE"/>
<path d="M2.86193 5.19526L0.528596 7.5286C0.268246 7.78894 0.268246 8.21106 0.528596 8.4714C0.788945 8.73175 1.21106 8.73175 1.4714 8.4714L3.80474 6.13807C4.06509 5.87772 4.06509 5.45561 3.80474 5.19526C3.54439 4.93491 3.12228 4.93491 2.86193 5.19526Z" fill="#F0F0F0"/>
<circle cx="8.33333" cy="0.666667" r="0.666667" fill="#F0F0F0"/>
</svg>
